<?xml version="1.0" standalone="no"?>
<!DOCTYPE svg PUBLIC "-//W3C//DTD SVG 1.1//EN" "http://www.w3.org/Graphics/SVG/1.1/DTD/svg11.dtd">
<svg xmlns:xlink="http://www.w3.org/1999/xlink" width="30.102ex" height="9.176ex" style="vertical-align: -4.005ex;" viewBox="0 -2226.5 12960.6 3950.7" xmlns="http://www.w3.org/2000/svg">
<defs>
<path stroke-width="10" id="E1-MJMAIN-28" d="M94 250Q94 319 104 381T127 488T164 576T202 643T244 695T277 729T302 750H315H319Q333 750 333 741Q333 738 316 720T275 667T226 581T184 443T167 250T184 58T225 -81T274 -167T316 -220T333 -241Q333 -250 318 -250H315H302L274 -226Q180 -141 137 -14T94 250Z"></path>
<path stroke-width="10" id="E1-MJMATHI-3BD" d="M74 431Q75 431 146 436T219 442Q231 442 231 434Q231 428 185 241L137 51H140L150 55Q161 59 177 67T214 86T261 119T312 165Q410 264 445 394Q458 442 496 442Q509 442 519 434T530 411Q530 390 516 352T469 262T388 162T267 70T106 5Q81 -2 71 -2Q66 -2 59 -1T51 1Q45 5 45 11Q45 13 88 188L132 364Q133 377 125 380T86 385H65Q59 391 59 393T61 412Q65 431 74 431Z"></path>
<path stroke-width="10" id="E1-MJMATHI-78" d="M52 289Q59 331 106 386T222 442Q257 442 286 424T329 379Q371 442 430 442Q467 442 494 420T522 361Q522 332 508 314T481 292T458 288Q439 288 427 299T415 328Q415 374 465 391Q454 404 425 404Q412 404 406 402Q368 386 350 336Q290 115 290 78Q290 50 306 38T341 26Q378 26 414 59T463 140Q466 150 469 151T485 153H489Q504 153 504 145Q504 144 502 134Q486 77 440 33T333 -11Q263 -11 227 52Q186 -10 133 -10H127Q78 -10 57 16T35 71Q35 103 54 123T99 143Q142 143 142 101Q142 81 130 66T107 46T94 41L91 40Q91 39 97 36T113 29T132 26Q168 26 194 71Q203 87 217 139T245 247T261 313Q266 340 266 352Q266 380 251 392T217 404Q177 404 142 372T93 290Q91 281 88 280T72 278H58Q52 284 52 289Z"></path>
<path stroke-width="10" id="E1-MJMAIN-29" d="M60 749L64 750Q69 750 74 750H86L114 726Q208 641 251 514T294 250Q294 182 284 119T261 12T224 -76T186 -143T145 -194T113 -227T90 -246Q87 -249 86 -250H74Q66 -250 63 -250T58 -247T55 -238Q56 -237 66 -225Q221 -64 221 250T66 725Q56 737 55 738Q55 746 60 749Z"></path>
<path stroke-width="10" id="E1-MJMAIN-AF" d="M69 544V590H430V544H69Z"></path>
<path stroke-width="10" id="E1-MJMAIN-27E8" d="M333 -232Q332 -239 327 -244T313 -250Q303 -250 296 -240Q293 -233 202 6T110 250T201 494T296 740Q299 745 306 749L309 750Q312 750 313 750Q331 750 333 732Q333 727 243 489Q152 252 152 250T243 11Q333 -227 333 -232Z"></path>
<path stroke-width="10" id="E1-MJMATHI-7A" d="M347 338Q337 338 294 349T231 360Q211 360 197 356T174 346T162 335T155 324L153 320Q150 317 138 317Q117 317 117 325Q117 330 120 339Q133 378 163 406T229 440Q241 442 246 442Q271 442 291 425T329 392T367 375Q389 375 411 408T434 441Q435 442 449 442H462Q468 436 468 434Q468 430 463 420T449 399T432 377T418 358L411 349Q368 298 275 214T160 106L148 94L163 93Q185 93 227 82T290 71Q328 71 360 90T402 140Q406 149 409 151T424 153Q443 153 443 143Q443 138 442 134Q425 72 376 31T278 -11Q252 -11 232 6T193 40T155 57Q111 57 76 -3Q70 -11 59 -11H54H41Q35 -5 35 -2Q35 13 93 84Q132 129 225 214T340 322Q352 338 347 338Z"></path>
<path stroke-width="10" id="E1-MJMAIN-27E9" d="M55 732Q56 739 61 744T75 750Q85 750 92 740Q95 733 186 494T278 250T187 6T92 -240Q85 -250 75 -250Q67 -250 62 -245T55 -232Q55 -227 145 11Q236 248 236 250T145 489Q55 727 55 732Z"></path>
<path stroke-width="10" id="E1-MJMAIN-2E" d="M78 60Q78 84 95 102T138 120Q162 120 180 104T199 61Q199 36 182 18T139 0T96 17T78 60Z"></path>
<path stroke-width="10" id="E1-MJMAIN-30" d="M96 585Q152 666 249 666Q297 666 345 640T423 548Q460 465 460 320Q460 165 417 83Q397 41 362 16T301 -15T250 -22Q224 -22 198 -16T137 16T82 83Q39 165 39 320Q39 494 96 585ZM321 597Q291 629 250 629Q208 629 178 597Q153 571 145 525T137 333Q137 175 145 125T181 46Q209 16 250 16Q290 16 318 46Q347 76 354 130T362 333Q362 478 354 524T321 597Z"></path>
<path stroke-width="10" id="E1-MJMAIN-7C" d="M139 -249H137Q125 -249 119 -235V251L120 737Q130 750 139 750Q152 750 159 735V-235Q151 -249 141 -249H139Z"></path>
<path stroke-width="10" id="E1-MJMATHI-79" d="M21 287Q21 301 36 335T84 406T158 442Q199 442 224 419T250 355Q248 336 247 334Q247 331 231 288T198 191T182 105Q182 62 196 45T238 27Q261 27 281 38T312 61T339 94Q339 95 344 114T358 173T377 247Q415 397 419 404Q432 431 462 431Q475 431 483 424T494 412T496 403Q496 390 447 193T391 -23Q363 -106 294 -155T156 -205Q111 -205 77 -183T43 -117Q43 -95 50 -80T69 -58T89 -48T106 -45Q150 -45 150 -87Q150 -107 138 -122T115 -142T102 -147L99 -148Q101 -153 118 -160T152 -167H160Q177 -167 186 -165Q219 -156 247 -127T290 -65T313 -9T321 21L315 17Q309 13 296 6T270 -6Q250 -11 231 -11Q185 -11 150 11T104 82Q103 89 103 113Q103 170 138 262T173 379Q173 380 173 381Q173 390 173 393T169 400T158 404H154Q131 404 112 385T82 344T65 302T57 280Q55 278 41 278H27Q21 284 21 287Z"></path>
<path stroke-width="10" id="E1-MJMATHI-76" d="M173 380Q173 405 154 405Q130 405 104 376T61 287Q60 286 59 284T58 281T56 279T53 278T49 278T41 278H27Q21 284 21 287Q21 294 29 316T53 368T97 419T160 441Q202 441 225 417T249 361Q249 344 246 335Q246 329 231 291T200 202T182 113Q182 86 187 69Q200 26 250 26Q287 26 319 60T369 139T398 222T409 277Q409 300 401 317T383 343T365 361T357 383Q357 405 376 424T417 443Q436 443 451 425T467 367Q467 340 455 284T418 159T347 40T241 -11Q177 -11 139 22Q102 54 102 117Q102 148 110 181T151 298Q173 362 173 380Z"></path>
</defs>
<g stroke="currentColor" fill="currentColor" stroke-width="0" transform="matrix(1 0 0 -1 0 0)">
<g transform="translate(167,0)">
<g transform="translate(-11,0)">
<g transform="translate(0,-1380)">
 <use xlink:href="#E1-MJMAIN-7C" x="0" y="0"></use>
</g>
</g>
<g transform="translate(550,0)">
<g transform="translate(0,680)">
<g transform="translate(167,0)">
<g transform="translate(-11,0)">
<g transform="translate(0,660)">
 <use xlink:href="#E1-MJMAIN-28" x="0" y="0"></use>
 <use xlink:href="#E1-MJMATHI-3BD" x="394" y="0"></use>
 <use xlink:href="#E1-MJMATHI-78" x="929" y="0"></use>
 <use xlink:href="#E1-MJMAIN-29" x="1506" y="0"></use>
</g>
</g>
<g transform="translate(2167,0)">
<g transform="translate(0,660)">
 <use xlink:href="#E1-MJMAIN-28" x="0" y="0"></use>
<g transform="translate(671,0)">
 <use xlink:href="#E1-MJMATHI-78" x="24" y="0"></use>
<g transform="translate(0,274)">
 <use transform="scale(0.707)" xlink:href="#E1-MJMAIN-AF" x="-74" y="0"></use>
<g transform="translate(241.64034331370345,0) scale(0.26039120634148394,1)">
 <use transform="scale(0.707)" xlink:href="#E1-MJMAIN-AF"></use>
</g>
 <use transform="scale(0.707)" xlink:href="#E1-MJMAIN-AF" x="381" y="0"></use>
</g>
</g>
 <use xlink:href="#E1-MJMAIN-27E8" x="1298" y="0"></use>
 <use xlink:href="#E1-MJMATHI-7A" x="1692" y="0"></use>
 <use xlink:href="#E1-MJMAIN-27E9" x="2165" y="0"></use>
 <use xlink:href="#E1-MJMAIN-2E" x="2559" y="0"></use>
 <use xlink:href="#E1-MJMAIN-30" x="3286" y="0"></use>
</g>
<g transform="translate(0,-700)">
 <use xlink:href="#E1-MJMAIN-7C" x="0" y="0"></use>
 <use xlink:href="#E1-MJMATHI-78" x="560" y="0"></use>
 <use xlink:href="#E1-MJMAIN-28" x="1137" y="0"></use>
 <use xlink:href="#E1-MJMATHI-79" x="1531" y="0"></use>
 <use xlink:href="#E1-MJMAIN-29" x="2033" y="0"></use>
 <use xlink:href="#E1-MJMAIN-2E" x="2427" y="0"></use>
<g transform="translate(3155,0)">
 <use xlink:href="#E1-MJMATHI-79" x="24" y="0"></use>
<g transform="translate(4,275)">
 <use transform="scale(0.707)" xlink:href="#E1-MJMAIN-AF" x="-74" y="0"></use>
 <use transform="scale(0.707)" xlink:href="#E1-MJMAIN-AF" x="274" y="0"></use>
</g>
</g>
 <use xlink:href="#E1-MJMAIN-27E8" x="3711" y="0"></use>
 <use xlink:href="#E1-MJMATHI-78" x="4105" y="0"></use>
 <use xlink:href="#E1-MJMAIN-27E9" x="4682" y="0"></use>
 <use xlink:href="#E1-MJMAIN-2E" x="5076" y="0"></use>
 <use xlink:href="#E1-MJMATHI-78" x="5803" y="0"></use>
 <use xlink:href="#E1-MJMAIN-28" x="6380" y="0"></use>
 <use xlink:href="#E1-MJMATHI-79" x="6774" y="0"></use>
 <use xlink:href="#E1-MJMAIN-29" x="7276" y="0"></use>
 <use xlink:href="#E1-MJMAIN-2E" x="7670" y="0"></use>
 <use xlink:href="#E1-MJMAIN-30" x="8398" y="0"></use>
 <use xlink:href="#E1-MJMAIN-29" x="9180" y="0"></use>
</g>
</g>
</g>
</g>
<g transform="translate(0,-1380)">
 <use xlink:href="#E1-MJMATHI-7A" x="0" y="0"></use>
 <use xlink:href="#E1-MJMAIN-28" x="473" y="0"></use>
 <use xlink:href="#E1-MJMATHI-76" x="867" y="0"></use>
 <use xlink:href="#E1-MJMAIN-29" x="1357" y="0"></use>
 <use xlink:href="#E1-MJMAIN-2E" x="1751" y="0"></use>
<g transform="translate(2478,0)">
 <use xlink:href="#E1-MJMATHI-76" x="24" y="0"></use>
<g transform="translate(0,275)">
 <use transform="scale(0.707)" xlink:href="#E1-MJMAIN-AF" x="-74" y="0"></use>
 <use transform="scale(0.707)" xlink:href="#E1-MJMAIN-AF" x="257" y="0"></use>
</g>
</g>
 <use xlink:href="#E1-MJMAIN-27E8" x="3017" y="0"></use>
 <use xlink:href="#E1-MJMATHI-76" x="3411" y="0"></use>
 <use xlink:href="#E1-MJMAIN-27E9" x="3901" y="0"></use>
<g transform="translate(4295,0)">
 <use xlink:href="#E1-MJMAIN-2E"></use>
 <use xlink:href="#E1-MJMAIN-30" x="283" y="0"></use>
</g>
</g>
</g>
</g>
</g>
</svg>